<svg id="Layer_1" data-name="Layer 1" xmlns="http://www.w3.org/2000/svg" viewBox="0 0 246.09 117.68"><defs><style>.cls-1{fill:#fff;}</style></defs><title>logo</title><path class="cls-1" d="M225,316c-33.66,4-53.59,27-51.8,59.49,1.27,23,24,47.09,45.25,47.41a78.1,78.1,0,0,1,.07-9.37c.49-4-1.33-5.41-5-6.33-17.33-4.41-30.64-18.8-32.19-35.39-2-21.17,5.58-36.46,23.76-46,6.13-3.21,12.85-5.24,20-3.43v47.1l-5.62,1,.06,1,5.1.77,2.71,5.83,2.21-5.76H268.2l-4,13.6c17.34.42,14.88,3.05,17-12.55a4.52,4.52,0,0,1,.36-.94l4.7-1.2-.11-.85-4.42-.78c-3.49-31.94-21.21-49.64-52.26-53.82l-1.82-6.21-1.63.14Zm56.22,103.67c-.17-1-.35-1.38-.25-1.6,1.56-3.26,3.33-7-.52-9.37-4.26-2.61-4.73,2.54-6.76,4.45l-1.09,1c-4.83,4.51-5.64,4.36-8.31-2.4l-7.08,8.4c3-10.92,15.08-16.09,17.16-29.27-2.8,1.56-4.87,2.08-5.91,3.41-4.28,5.46-8.91,10.82-12.11,16.9a20.35,20.35,0,0,1-10.79,9.71c-5.76,2.42-10.14-.73-9.62-7a22.49,22.49,0,0,1,7.45-15.37c2.51-2.24,5.44-4,8.79-1.28l-5.72,14c5-2.06,7.56-5.93,8.68-12.14.35-1.95.43-5.14-.65-5.87a7.75,7.75,0,0,0-6.47-.36c-9.3,4.15-15.14,11.37-16.51,21.57-1.12,8.35,4.78,12.59,12.58,9.31,2.85-1.2,5.54-2.79,8.43-4.27l1,6.54,7.69-6.76c8.23,5.1,11-4.93,18.1-6.48l-3.44,10.73.91.83,9.88-6c.84,5.47,2.17,6.25,7.26,3.85,4.32-2,8.57-4.25,12.88-6.41L304,423.95l1.11.71,10.81-8.28c2.38,7.27,6,4.42,9.45,1.55.4,5.78,2.08,6.9,6.88,4.44,4.45-2.28,8.67-5,13-7.55.9-.53,1.84-1,2.85-1.52,1.77,4.86-7.31,6.27-2.75,12l9.08-6.08-.54-1-3.13.41,3.68-10.78-1.62-1.19-12.23,9.3c-.57-2.36-.44-5.49-1.7-6.23-2.31-1.36-5.3-1.94-7.94.8s-5.79,4.74-8.86,7.18c-2.77-6.43-2.77-6.43-10.71-1.31l2.09-7.65-1.37-1-9.72,7.73c-.82-2.25-1-5.16-2.35-6a6.13,6.13,0,0,0-7.93,1.21C288.87,414,285.06,416.56,281.24,419.65Zm100.08-6.42-1.94,11.21,1.54.22c3.92-10.83,8.64-21.55,3.43-33.81-.79.39-2.14.61-2.72,1.4-3.06,4.18-6.3,8.3-8.76,12.83-2.76,5.1-5.54,9.28-12.34,8.24-1.62-.25-3.43.8-5.15,1.25l.39,1.62h10.7L363,426.11l1.32,1.1C368.08,420.26,370.72,411.89,381.32,413.23Zm11.48,9.84,1,1.45,13.35-9.17-1.76,9,1.69.86,7.63-6.15-.52-.8-4.5.48,9.49-20.37c-3.46.79-5.52,2.28-7.81,3.18-2.07.82-5.49-1.24-6.18,3.23l7.23,1.81-14.35,12.53c.52-2.67,1.43-5.06,1.32-7.39-.16-3.35-3.41-5-5.54-2.92-2.67,2.61-4.81,5.77-7.18,8.68l.68.71,7.75-5.67c.38,1.25.75,1.79.63,2.17C394.82,417.54,393.79,420.3,392.8,423.07Z" transform="translate(-173.11 -309.53)"/><path d="M225,316l1.08-6.3,1.63-.14,1.82,6.21c31,4.18,48.76,21.88,52.26,53.82l4.42.78.11.85-4.7,1.2a4.52,4.52,0,0,0-.36.94c-2.17,15.6.29,13-17,12.55l4-13.6H229.57L227.36,378l-2.71-5.83-5.1-.77-.06-1,5.62-1v-47.1c-7.11-1.8-13.82.22-20,3.43-18.18,9.52-25.73,24.8-23.76,46,1.55,16.59,14.86,31,32.19,35.39,3.63.92,5.45,2.3,5,6.33a78.1,78.1,0,0,0-.07,9.37c-21.28-.32-44-24.39-45.25-47.41C171.43,343,191.36,320,225,316Zm42.55,53.62c4.85-25.6-18.22-47.93-38.34-47.36V369.6Z" transform="translate(-173.11 -309.53)"/><path d="M281.24,419.65c3.81-3.09,7.62-5.7,10.82-8.91a6.13,6.13,0,0,1,7.93-1.21c1.38.8,1.54,3.7,2.35,6l9.72-7.73,1.37,1-2.09,7.65c7.94-5.12,7.94-5.12,10.71,1.31,3.07-2.44,6.28-4.5,8.86-7.18s5.63-2.15,7.94-.8c1.26.74,1.13,3.86,1.7,6.23l12.23-9.3,1.62,1.19-3.68,10.78,3.13-.41.54,1-9.08,6.08c-4.56-5.74,4.53-7.15,2.75-12-1,.54-2,1-2.85,1.52-4.33,2.53-8.54,5.27-13,7.55-4.8,2.46-6.48,1.34-6.88-4.44-3.5,2.88-7.07,5.72-9.45-1.55l-10.81,8.28-1.11-.71,2.84-8.08c-4.32,2.16-8.56,4.37-12.88,6.41-5.09,2.4-6.43,1.62-7.26-3.85l-9.88,6-.91-.83,3.44-10.73c-7.14,1.55-9.87,11.58-18.1,6.48L253.52,426l-1-6.54c-2.89,1.48-5.57,3.08-8.43,4.27-7.81,3.27-13.7-1-12.58-9.31,1.37-10.2,7.2-17.42,16.51-21.57a7.75,7.75,0,0,1,6.47.36c1.08.73,1,3.92.65,5.87-1.11,6.2-3.71,10.07-8.68,12.14l5.72-14c-3.35-2.69-6.28-1-8.79,1.28A22.49,22.49,0,0,0,236,413.93c-.52,6.23,3.86,9.38,9.62,7a20.35,20.35,0,0,0,10.79-9.71c3.2-6.08,7.83-11.44,12.11-16.9,1-1.33,3.11-1.85,5.91-3.41-2.08,13.18-14.15,18.35-17.16,29.27l7.08-8.4c2.67,6.76,3.47,6.91,8.31,2.4l1.09-1c2-1.9,2.5-7.06,6.76-4.45,3.84,2.36,2.07,6.12.52,9.37C280.89,418.27,281.07,418.63,281.24,419.65ZM329,419l1.54,1.37c3.57-.86,5.83-2.8,5.8-6.6l-1.3-1.15Zm-38.39,0,1.26,1.17c4.82-1.32,6.16-3.08,5-8Z" transform="translate(-173.11 -309.53)"/><path d="M381.32,413.23c-10.6-1.34-13.24,7-17,14l-1.32-1.1,3.46-9.92h-10.7l-.39-1.62c1.72-.45,3.54-1.49,5.15-1.25,6.8,1,9.57-3.15,12.34-8.24,2.46-4.53,5.7-8.65,8.76-12.83.58-.79,1.93-1,2.72-1.4,5.21,12.26.49,23-3.43,33.81l-1.54-.22ZM382.48,400l-2.51-.48L373.65,410l.89,1.19c2.47-.87,6-1.05,7.14-2.8C383,406.3,382.3,402.87,382.48,400Z" transform="translate(-173.11 -309.53)"/><path d="M392.8,423.07c1-2.77,2-5.53,3-8.32.13-.38-.25-.92-.63-2.17l-7.75,5.67-.68-.71c2.37-2.92,4.51-6.07,7.18-8.68,2.13-2.09,5.39-.43,5.54,2.92.11,2.33-.81,4.72-1.32,7.39l14.35-12.53-7.23-1.81c.69-4.47,4.11-2.41,6.18-3.23,2.29-.9,4.35-2.39,7.81-3.18l-9.49,20.37,4.5-.48.52.8-7.63,6.15-1.69-.86,1.76-9-13.35,9.17Z" transform="translate(-173.11 -309.53)"/><path class="cls-1" d="M267.56,369.6H229.22V322.24C249.35,321.67,272.41,344,267.56,369.6Z" transform="translate(-173.11 -309.53)"/><path class="cls-1" d="M329,419l6-6.38,1.3,1.15c0,3.81-2.23,5.74-5.8,6.6Z" transform="translate(-173.11 -309.53)"/><path class="cls-1" d="M290.63,419l6.22-6.79c1.21,4.88-.13,6.64-5,8Z" transform="translate(-173.11 -309.53)"/><path class="cls-1" d="M382.48,400c-.17,2.86.54,6.29-.8,8.4-1.11,1.74-4.67,1.92-7.14,2.8l-.89-1.19L380,399.52Z" transform="translate(-173.11 -309.53)"/></svg>